<?xml version="1.0" encoding="utf-8"?>
<!-- Generator: Adobe Illustrator 16.0.0, SVG Export Plug-In . SVG Version: 6.00 Build 0)  -->
<!DOCTYPE svg PUBLIC "-//W3C//DTD SVG 1.1//EN" "http://www.w3.org/Graphics/SVG/1.1/DTD/svg11.dtd">
<svg version="1.1" id="Layer_1" xmlns="http://www.w3.org/2000/svg" xmlns:xlink="http://www.w3.org/1999/xlink" x="0px" y="0px"
	 width="800px" height="89.089px" viewBox="0 0 800 89.089" enable-background="new 0 0 800 89.089" xml:space="preserve">
<g>
	<defs>
		<rect id="SVGID_1_" y="12.535" width="800" height="67.054"/>
	</defs>
	<clipPath id="SVGID_2_">
		<use xlink:href="#SVGID_1_"  overflow="visible"/>
	</clipPath>
	<path clip-path="url(#SVGID_2_)" fill="#FFFFFF" d="M468.085,37.703c2.755,0,5.308-0.295,6.888-1.231
		c2.173-1.288,2.604-3.595,2.393-5.148c-0.376-2.79-1.088-4.35-5.872-5.22c-6.635-1.207-19.365-2.316-20.663-2.393
		c-2.497-0.146-15.443-1.305-21.461-2.103c-3.215-0.426-5.654-0.942-6.96-1.232c-1.305-0.29-4.277-0.445-6.96-0.58
		c-2.899-0.145-7.468-1.304-9.933-1.958c-1.305-2.101-6.018-2.465-6.018-2.465c-8.7-1.354-20.204,8.314-28.614,10.826
		c-3.251,0.972-6.911,1.499-11.841,1.354v37.314c6.139-0.484,10.505-0.341,11.939,0.482c4.542,2.609,14.001,7.739,21.653,9.569
		c11.311,2.708,19.235,1.865,24.457,1.74c4.061-0.096,12.664,1.451,16.627,1.548c4.06,1.595,7.468,0.531,8.917-2.005
		c0.844-1.476,1.886-3.146,0.726-5.149c-1.595-2.755-7.686-5.827-11.527-8.12l-10.44-4.64c5.22,1.957,9.718,4.307,16.095,6.525
		c8.338,2.899,10.44,2.247,12.108,1.449c1.017-0.485,1.982-1.041,2.465-2.609c1.16-3.771,1.31-6.678-4.423-9.135
		c-4.06-1.74-9.207-2.9-12.107-3.625l-3.987-0.29c4.833,0.386,14.259,0.7,18.705,0.798c6.598,0.145,20.922-0.403,24.36-0.943
		c6.453-1.015,6.265-5.801,6.057-6.96c-0.208-1.157-0.548-3.114-2.648-4.06C475.117,38.138,468.085,37.703,468.085,37.703"/>
</g>
<rect x="350.366" y="22.716" fill="#FFFFFF" width="12.549" height="50.82"/>
<g>
	<defs>
		<rect id="SVGID_3_" y="12.535" width="800" height="67.054"/>
	</defs>
	<clipPath id="SVGID_4_">
		<use xlink:href="#SVGID_3_"  overflow="visible"/>
	</clipPath>
	<path clip-path="url(#SVGID_4_)" fill="#FFFFFF" d="M355.201,71.199c1.655,0,2.997-1.343,2.997-2.996
		c0-1.655-1.341-2.997-2.997-2.997c-1.654,0-2.996,1.342-2.996,2.997C352.205,69.856,353.547,71.199,355.201,71.199"/>
	<path clip-path="url(#SVGID_4_)" fill="#231F20" d="M479.11,47.337c-0.828,1.25-2.378,2.062-4.609,2.413
		c-3.364,0.529-17.633,1.08-24.235,0.935c-4.615-0.102-11.143-0.419-15.495-0.734c-0.73-0.198-1.732-0.476-2.833-0.781
		c-4.814-1.334-8.87-2.445-9.74-2.542l-0.322-0.037c-0.393-0.048-0.832-0.081-1.286-0.09c0.014-0.284,0.028-0.564,0.042-0.855
		c0.297-5.777,0.395-9.662-0.918-10.974c-2.999-2.999-6.79-7.295-8.632-9.781c-0.46-0.621-2.562-3.722-4.016-5.954
		c2.321,0.585,5.907,1.411,8.35,1.533c2.343,0.118,5.554,0.277,6.843,0.564c0.863,0.191,3.486,0.775,7.019,1.244
		c6.156,0.815,19.114,1.966,21.513,2.107c1.334,0.078,13.979,1.183,20.579,2.382c4.574,0.833,4.98,2.229,5.305,4.626
		c0.196,1.448-0.241,3.378-2.056,4.452c-1.272,0.753-3.469,1.135-6.532,1.135c-7.657,0-33.388-0.807-38.102-1.179l-0.283-1.99
		l-1.389,0.167c0.048,0.496,0.101,0.926,0.146,1.306c0.163,1.356,0.252,2.104-0.062,3.633l1.368,0.282
		c0.164-0.795,0.227-1.418,0.235-1.994c5.341,0.401,31.1,1.173,38.062,1.174c0.245,0.016,6.956,0.458,9.669,1.678
		c1.397,0.628,1.925,1.773,2.118,2.879c0.043,0.251,0.085,0.49,0.142,0.714C480.111,44.135,480.102,45.84,479.11,47.337
		 M447.364,55.143c5.396,2.311,5.075,4.893,4.032,8.286c-0.396,1.284-1.153,1.732-2.101,2.186
		c-1.301,0.622-3.082,1.475-11.575-1.479c-3.63-1.263-6.641-2.565-9.552-3.825c-2.202-0.952-4.282-1.853-6.529-2.694
		c-0.29-0.109-0.555-0.207-0.807-0.298c-0.005-0.061-0.009-0.136-0.014-0.198c0.573,0.177,1.186,0.347,1.744,0.458
		c2.756,0.551,3.725-0.353,4.36-1.413c0.049-0.082,0.091-0.146,0.13-0.21c0.304-0.47,0.386-0.641,0.891-2.664
		c0.188-0.745,0.027-1.513-0.462-2.218c-0.837-1.208-2.598-2.127-4.486-2.343c-0.467-0.053-1.538-0.289-2.48-0.511
		c0.002-0.107,0.004-0.212,0.009-0.323c0.404,0.005,0.799,0.034,1.185,0.08l0.334,0.04c0.831,0.093,6.062,1.542,9.522,2.5
		c1.794,0.497,3.212,0.889,3.797,1.035l1.144,0.283C439.43,52.551,443.847,53.634,447.364,55.143 M442.757,71.379
		c0.918,1.584,0.163,2.901-0.636,4.295l-0.091,0.157c-1.555,2.723-5.093,3.104-9.459,1.021c-5.694-2.719-9.976-6.358-13.419-9.284
		l-1.068-0.906c0.3,0.192,0.625,0.396,0.993,0.618c1.688,1.012,2.962,0.846,3.734,0.528c1.203-0.495,2.076-1.677,2.522-3.42
		c0.274-1.066,0.204-3.053-3.331-4.38c-0.332-0.124-0.645-0.226-0.946-0.315c0.005-0.188-0.002-0.386-0.023-0.593
		c1.652,0.532,3.778,1.309,5.833,2.173c0.251,0.109,0.494,0.212,0.75,0.32c0.025,0.012,0.054,0.023,0.081,0.036
		c1.413,0.619,2.745,1.264,3.78,1.881c0.708,0.422,1.484,0.867,2.307,1.337C437.243,66.827,441.55,69.292,442.757,71.379
		 M419.484,60.366c-0.029,0.042-0.086,0.067-0.124,0.104c-0.685,0.173-2.32,0.391-3.424-1.094c-1.429-1.928-1.78-6.027-0.192-7.736
		c0.575-0.622,2.204-0.602,3.383-0.421l0.079,1.736c0.106,2.533,0.208,4.923,0.392,5.84
		C419.743,59.514,419.704,60.043,419.484,60.366 M420.482,49.646c0.879,0.203,1.858,0.415,2.355,0.474
		c1.483,0.169,2.888,0.872,3.496,1.749c0.257,0.369,0.343,0.735,0.256,1.084c-0.467,1.869-0.524,1.957-0.709,2.247
		c-0.043,0.064-0.096,0.145-0.155,0.246c-0.321,0.533-0.718,1.196-2.888,0.763c-0.671-0.135-1.445-0.365-2.109-0.583
		c-0.048-0.871-0.089-1.817-0.127-2.729l-0.104-2.297C420.483,50.319,420.479,49.992,420.482,49.646 M420.638,61.153
		c0.022-0.033,0.036-0.074,0.059-0.106c0.259,0.078,0.527,0.162,0.814,0.27c1.918,0.719,2.75,1.637,2.47,2.726
		c-0.327,1.28-0.932,2.158-1.7,2.474c-0.863,0.354-1.827-0.04-2.485-0.435c-1.604-0.963-2.254-1.488-2.837-2.069
		c-0.478-0.479-0.888-1.023-0.987-1.73c1.229,0.167,2.257,0.058,2.79-0.037c0.522-0.091,1.422-0.613,1.422-0.613
		C420.355,61.491,420.513,61.336,420.638,61.153 M426.518,76.765c-3.514-0.433-7.148-0.881-9.441-0.827l-2.397,0.085
		c-5.179,0.209-12.269,0.494-21.88-1.806c-7.364-1.763-16.61-6.707-21.468-9.496c-1.325-0.763-4.435-0.915-7.717-0.826V28.134
		c2.682-0.177,5.133-0.589,7.472-1.288c3.146-0.94,6.629-2.814,10.317-4.797c6.246-3.359,12.704-6.832,17.99-6.01
		c1.265,0.102,4.615,0.669,5.529,2.144c1.265,2.036,4.432,6.726,5.036,7.54c1.876,2.532,5.727,6.897,8.767,9.937
		c0.97,0.97,0.693,6.353,0.51,9.915c-0.079,1.565-0.153,3.049-0.149,4.23c-1.209-0.159-3.32-0.24-4.366,0.885
		c-2.084,2.247-1.692,7.112,0.096,9.519c0.158,0.213,0.333,0.383,0.505,0.552c-1.567-0.393-3.321-1.396-4.681-3.713
		c-1.834-3.125-1.809-6.303-1.782-9.669c0.011-1.19,0.02-2.419-0.058-3.652l-0.025-0.394l-0.349-0.182
		c-2.023-1.048-3.575-2.534-4.502-3.421c-0.227-0.217-0.421-0.404-0.581-0.545c-0.334-0.292-0.721-0.384-1.062-0.465
		c-0.69-0.166-1.343-0.322-1.654-2.724l-1.386,0.181c0.186,1.44,0.542,2.31,0.978,2.873c-0.643-0.022-1.154-0.244-1.572-0.934
		l-1.195,0.725c0.516,0.853,1.166,1.262,1.826,1.455c-2.096,3.387-3.975,6.06-9.245,7.515c-5.315,1.468-11.466,0.291-14.624-2.799
		l-0.977,1c3.513,3.438,9.99,4.736,15.805,3.187c7.256,1.239,8.995,3.867,10.146,6.458l1.277-0.568
		c-1.115-2.506-2.836-5.246-8.837-6.771c4.268-1.812,6.026-4.655,8.007-7.876l0.01-0.016c0.275-0.025,0.537-0.059,0.76-0.093
		c0.287-0.044,0.714-0.107,0.848-0.069c0.134,0.118,0.306,0.282,0.509,0.476c0.923,0.885,2.451,2.319,4.46,3.438
		c0.052,1.066,0.052,2.145,0.043,3.192c-0.027,3.408-0.056,6.931,1.972,10.388c1.236,2.105,2.781,3.272,4.272,3.91
		c-0.29,2.215,0.523,3.572,3.471,6.058l1.071,0.91c3.139,2.667,6.97,5.911,11.94,8.569C429.042,77.076,427.8,76.924,426.518,76.765
		 M362.216,72.837h-8.176v-1.145c0.367,0.122,0.753,0.205,1.161,0.205c2.039,0,3.695-1.658,3.695-3.695s-1.656-3.695-3.695-3.695
		c-0.408,0-0.794,0.082-1.161,0.206V23.416h8.176V72.837z M354.04,66.231c0.342-0.201,0.736-0.326,1.161-0.326
		c1.267,0,2.298,1.03,2.298,2.298c0,1.266-1.031,2.297-2.298,2.297c-0.425,0-0.819-0.123-1.161-0.326V66.231z M481.345,43.311
		c-0.044-0.175-0.08-0.388-0.12-0.615c-0.207-1.188-0.848-2.982-2.921-3.913c-1.088-0.49-2.702-0.861-4.326-1.132
		c0.508-0.171,0.96-0.372,1.351-0.603c2.402-1.423,2.985-3.951,2.729-5.843c-0.436-3.224-1.511-4.917-6.439-5.814
		c-6.657-1.21-19.404-2.323-20.748-2.403c-2.386-0.14-15.281-1.285-21.407-2.097c-3.474-0.461-6.052-1.034-6.901-1.221
		c-1.3-0.289-3.975-0.442-7.076-0.597c-2.929-0.147-7.696-1.382-9.556-1.873c-1.609-2.116-5.877-2.509-6.378-2.549
		c-5.693-0.888-12.362,2.699-18.811,6.165c-3.624,1.95-7.045,3.791-10.056,4.688c-2.21,0.662-4.531,1.055-7.072,1.23v-4.019v-0.699
		h-0.7h-8.874v-1.732H0v55.72h354.04v-1.771h8.874h0.7v-0.699v-8.243c5.129-0.14,6.647,0.424,7.021,0.639
		c4.923,2.827,14.305,7.842,21.84,9.644c9.8,2.345,17.001,2.055,22.26,1.842l2.376-0.082c2.19-0.052,5.772,0.39,9.237,0.817
		c2.852,0.352,5.547,0.686,7.356,0.729l0.002-0.052c6.278,2.258,8.863-1.125,9.538-2.307l0.089-0.153
		c0.824-1.439,1.954-3.409,0.634-5.69c-0.967-1.672-3.323-3.364-5.94-4.968c7.722,2.604,9.965,2.075,11.872,1.162
		c1.126-0.538,2.272-1.216,2.832-3.035c1.136-3.686,1.62-7.224-4.814-9.982c-1.91-0.818-4.056-1.507-6.096-2.085
		c2.766,0.14,5.663,0.248,8.416,0.309c6.65,0.145,21.068-0.414,24.482-0.952c2.634-0.414,4.503-1.431,5.558-3.021
		C481.581,46.136,481.502,43.937,481.345,43.311"/>
	<path clip-path="url(#SVGID_4_)" fill="#231F20" d="M453.999,24.358c-2.621,2.621-3.145,11.703-1.922,12.928
		c0,0-0.874,3.144-0.874,6.462c0,2.8,1.573,7.162,1.573,7.162"/>
	<path clip-path="url(#SVGID_4_)" fill="none" stroke="#231F20" stroke-width="0.904" stroke-miterlimit="2.613" d="M453.999,24.358
		c-2.621,2.621-3.145,11.703-1.922,12.928c0,0-0.874,3.144-0.874,6.462c0,2.8,1.573,7.162,1.573,7.162"/>
	<path clip-path="url(#SVGID_4_)" fill="#231F20" d="M455.396,23.835c-2.62,2.621-2.62,12.228-1.397,13.45
		c0,0-0.873,3.145-0.873,6.464c0,2.8,1.571,7.162,1.571,7.162"/>
	<path clip-path="url(#SVGID_4_)" fill="none" stroke="#231F20" stroke-width="0.904" stroke-miterlimit="2.613" d="M455.396,23.835
		c-2.62,2.621-2.62,12.228-1.397,13.45c0,0-0.873,3.145-0.873,6.464c0,2.8,1.571,7.162,1.571,7.162"/>
	<path clip-path="url(#SVGID_4_)" fill="#231F20" d="M458.89,24.534c-2.62,2.62-1.571,11.527-0.35,12.752
		c0,0-1.688,3.843-1.922,6.637c-0.29,3.483,0.7,6.986,0.7,6.986"/>
	<path clip-path="url(#SVGID_4_)" fill="none" stroke="#231F20" stroke-width="0.904" stroke-miterlimit="2.613" d="M458.89,24.534
		c-2.62,2.62-1.571,11.527-0.35,12.752c0,0-1.688,3.843-1.922,6.637c-0.29,3.483,0.7,6.986,0.7,6.986"/>
	<path clip-path="url(#SVGID_4_)" fill="#231F20" d="M458.89,24.534c-5.415,6.637-3.669,26.375-3.669,26.375"/>
	<path clip-path="url(#SVGID_4_)" fill="none" stroke="#231F20" stroke-width="0.904" stroke-miterlimit="2.613" d="M458.89,24.534
		c-5.415,6.637-3.669,26.375-3.669,26.375"/>
	<path clip-path="url(#SVGID_4_)" fill="#231F20" d="M460.229,24.941c1.048,13.159-1.746,25.969-1.746,25.969"/>
	<path clip-path="url(#SVGID_4_)" fill="none" stroke="#231F20" stroke-width="0.904" stroke-miterlimit="2.613" d="M460.229,24.941
		c1.048,13.159-1.746,25.969-1.746,25.969"/>
	<path clip-path="url(#SVGID_4_)" fill="#231F20" d="M457.668,23.893c5.007-0.466,13.442-5.685,10.997-8.036
		C465.522,12.835,457.668,23.893,457.668,23.893"/>
	<path clip-path="url(#SVGID_4_)" fill="none" stroke="#231F20" stroke-width="0.904" stroke-miterlimit="2.613" d="M457.668,23.893
		c5.007-0.466,13.442-5.685,10.997-8.036C465.522,12.835,457.668,23.893,457.668,23.893z"/>
	<path clip-path="url(#SVGID_4_)" fill="#231F20" d="M457.085,23.544c0,0-5.94-10.714-10.248-10.481
		C442.526,13.295,449.748,21.447,457.085,23.544"/>
	<path clip-path="url(#SVGID_4_)" fill="none" stroke="#231F20" stroke-width="0.904" stroke-miterlimit="2.613" d="M457.085,23.544
		c0,0-5.94-10.714-10.248-10.481C442.526,13.295,449.748,21.447,457.085,23.544z"/>
	<path clip-path="url(#SVGID_4_)" fill="#231F20" d="M458.365,23.485c6.893,1.941,7.689-3.206,12.91,0.781"/>
	<path clip-path="url(#SVGID_4_)" fill="none" stroke="#231F20" stroke-width="0.904" stroke-miterlimit="2.613" d="M458.365,23.485
		c6.893,1.941,7.689-3.206,12.91,0.781"/>
	<path clip-path="url(#SVGID_4_)" fill="#231F20" d="M457.668,23.893c-5.581,1.123-10.416-8.158-13.626,5.008"/>
	<path clip-path="url(#SVGID_4_)" fill="none" stroke="#231F20" stroke-width="0.904" stroke-miterlimit="2.613" d="M457.668,23.893
		c-5.581,1.123-10.416-8.158-13.626,5.008"/>
	<path clip-path="url(#SVGID_4_)" fill="#FFFFFF" d="M26.877,52.285v2.882c0,1.418,1.117,4.428,4.338,4.428
		c2.835,0,3.695-2.279,3.695-3.784c0-2.839-2.577-3.741-5.327-5.333c-4.337-2.493-8.672-4.515-8.672-10.407
		c0-2.666,1.115-4.939,2.576-6.436c2.017-2.053,4.335-2.951,7.472-2.951c2.706,0,5.068,0.641,6.871,2.396
		c1.503,1.454,2.49,4.368,2.49,6.734v2.451h-6.097v-1.377c-0.172-2.836-1.116-4.514-3.738-4.514c-1.976,0-3.136,1.461-3.136,2.924
		c0,3.269,4.211,4.515,7.947,6.837c3.178,1.935,6.053,4.945,6.053,9.417c0,3.184-1.203,5.674-3.006,7.35
		c-2.06,1.889-4.25,2.791-7.257,2.791c-3.393,0-6.012-1.289-7.944-3.178c-1.802-1.804-2.661-4.34-2.661-7.178v-3.053H26.877z"/>
</g>
<polygon fill="#FFFFFF" points="43.764,30.828 50.542,30.828 50.542,58.272 59.38,58.272 59.38,65.127 43.764,65.127 "/>
<g>
	<defs>
		<rect id="SVGID_5_" y="12.535" width="800" height="67.054"/>
	</defs>
	<clipPath id="SVGID_6_">
		<use xlink:href="#SVGID_5_"  overflow="visible"/>
	</clipPath>
	<path clip-path="url(#SVGID_6_)" fill="#FFFFFF" d="M61.435,30.828h7.249v25.049c0,1.846,0,3.307,1.616,3.307
		c1.615,0,1.615-1.461,1.615-3.307V30.828h7.121v25.735c0,6.091-3.302,9.134-8.735,9.134c-5.477,0-8.865-3.814-8.865-9.907V30.828z"
		/>
</g>
<polygon fill="#FFFFFF" points="81.14,30.828 100.016,30.828 100.016,37.427 94.139,37.427 94.139,65.127 87.188,65.127 
	87.188,37.427 81.14,37.427 "/>
<path fill="#FFFFFF" d="M97.031,65.128h6.95l0.815-4.317h5.363l0.815,4.317h6.95l-6.864-34.3h-7.207L97.031,65.128z M107.413,45.916
	h0.086l1.372,8.254h-2.744L107.413,45.916z"/>
<rect x="118.683" y="44.923" fill="#FFFFFF" width="11.284" height="5.968"/>
<g>
	<defs>
		<rect id="SVGID_7_" y="12.535" width="800" height="67.054"/>
	</defs>
	<clipPath id="SVGID_8_">
		<use xlink:href="#SVGID_7_"  overflow="visible"/>
	</clipPath>
	<path clip-path="url(#SVGID_8_)" fill="#FFFFFF" d="M133.812,65.128h6.908V50.167l1.286,0.043c1.973,0,3.003,1.544,3.003,3.517
		v4.931c0,2.272,0,5.36,0.773,6.472h6.563c-0.771-1.111-0.686-4.199-0.686-6.472v-5.103c0-2.873-2.016-6.049-5.105-6.566v-0.084
		c3.688-1.461,5.233-3.739,5.233-7.787c0-5.714-2.703-8.288-6.693-8.288h-11.284V65.128z M140.721,37.094h1.372
		c2.361,0,2.875,1.291,2.875,3.702c0,2.241-0.601,3.272-2.531,3.272h-1.715V37.094z"/>
	<path clip-path="url(#SVGID_8_)" fill="#FFFFFF" d="M154.921,55.857c-0.043,6.058,3.519,9.836,9.349,9.836
		c5.788,0,9.391-3.778,9.391-9.836V40.388c0-6.615-3.946-9.792-9.391-9.792c-5.444,0-9.392,3.178-9.349,9.792V55.857z
		 M162.171,39.744c0-1.16,0-3.223,2.142-3.223c2.1,0,2.1,2.063,2.1,3.223v16.802c0,0.901,0,3.18-2.1,3.18
		c-2.142,0-2.142-2.278-2.142-3.18V39.744z"/>
</g>
<polygon fill="#FFFFFF" points="176.539,30.828 183.532,30.828 183.532,42.406 183.661,42.406 188.122,30.828 195.415,30.828 
	187.95,48.241 195.073,65.127 188.079,65.127 183.703,53.646 183.532,53.646 183.532,65.127 176.539,65.127 "/>
<path fill="#FFFFFF" d="M196.133,65.128h6.95l0.815-4.317h5.363l0.815,4.317h6.95l-6.865-34.3h-7.207L196.133,65.128z
	 M206.516,45.916h0.085l1.372,8.254h-2.745L206.516,45.916z"/>
<rect x="217.785" y="44.923" fill="#FFFFFF" width="11.284" height="5.968"/>
<polygon fill="#FFFFFF" points="232.912,30.828 239.689,30.828 239.689,58.272 248.528,58.272 248.528,65.127 232.912,65.127 "/>
<rect x="250.82" y="30.828" fill="#FFFFFF" width="6.779" height="34.3"/>
<polygon fill="#FFFFFF" points="260.708,30.828 268.214,30.828 274.513,48.475 274.642,48.475 274.642,30.828 281.676,30.828 
	281.676,65.127 273.613,65.127 267.485,48.132 267.401,48.132 267.401,65.127 260.708,65.127 "/>
<g>
	<defs>
		<rect id="SVGID_9_" y="12.535" width="800" height="67.054"/>
	</defs>
	<clipPath id="SVGID_10_">
		<use xlink:href="#SVGID_9_"  overflow="visible"/>
	</clipPath>
	<path clip-path="url(#SVGID_10_)" fill="#FFFFFF" d="M284.485,58.573h1.373c3.432,0,4.504-0.172,4.504-4.037V30.828h6.822v25.897
		c0,7.545-4.075,8.317-9.566,8.402h-3.132V58.573z"/>
</g>
<polygon fill="#FFFFFF" points="300.096,30.828 315.883,30.828 315.883,37.384 307.002,37.384 307.002,44.491 314.854,44.491 
	314.854,51.004 307.002,51.004 307.002,58.357 316.013,58.357 316.013,65.127 300.096,65.127 "/>
<polygon fill="#FFFFFF" points="318.882,30.828 326.39,30.828 332.687,48.475 332.816,48.475 332.816,30.828 339.851,30.828 
	339.851,65.127 331.787,65.127 325.661,48.132 325.575,48.132 325.575,65.127 318.882,65.127 "/>
<path fill="#FFFFFF" d="M165.513,29.928h5.318v-5.314h-5.318V29.928z M157.795,29.928h5.319v-5.314h-5.319V29.928z"/>
<g>
	<defs>
		<rect id="SVGID_11_" y="12.535" width="800" height="67.054"/>
	</defs>
	<clipPath id="SVGID_12_">
		<use xlink:href="#SVGID_11_"  overflow="visible"/>
	</clipPath>
	<path clip-path="url(#SVGID_12_)" fill="#231F20" d="M495.622,54.881h6.907V39.919l1.287,0.043c1.975,0,3.004,1.544,3.004,3.517
		v4.931c0,2.273,0,5.36,0.773,6.472h6.563c-0.772-1.111-0.687-4.198-0.687-6.472v-5.104c0-2.873-2.017-6.049-5.105-6.566v-0.084
		c3.689-1.461,5.234-3.739,5.234-7.787c0-5.714-2.704-8.288-6.692-8.288h-11.285V54.881z M502.529,26.846h1.373
		c2.36,0,2.874,1.291,2.874,3.702c0,2.241-0.599,3.272-2.53,3.272h-1.717V26.846z"/>
</g>
<rect x="516.875" y="20.581" fill="#231F20" width="6.778" height="34.301"/>
<polygon fill="#231F20" points="526.762,20.581 534.27,20.581 540.567,38.228 540.696,38.228 540.696,20.581 547.73,20.581 
	547.73,54.88 539.668,54.88 533.541,37.884 533.456,37.884 533.456,54.88 526.762,54.88 "/>
<g>
	<defs>
		<rect id="SVGID_13_" y="12.535" width="800" height="67.054"/>
	</defs>
	<clipPath id="SVGID_14_">
		<use xlink:href="#SVGID_13_"  overflow="visible"/>
	</clipPath>
	<path clip-path="url(#SVGID_14_)" fill="#231F20" d="M550.572,29.922c0-6.698,3.39-9.529,8.456-9.529
		c7.083,0,8.67,5.405,8.67,8.026v4.167h-6.649v-3.094c0-1.203-0.344-2.706-1.85-2.706c-1.805,0-1.847,2.062-1.847,3.137v15.773
		c0,0.907,0,3.285,1.762,3.285c1.16,0,2.019-0.951,2.019-2.723v-2.811h-1.934v-6.222h8.499v17.667h-1.329l-1.931-2.27
		c-1.632,1.842-3.519,2.828-5.926,2.828c-2.406,0-7.94-1.542-7.94-7.549V29.922z"/>
	<path clip-path="url(#SVGID_14_)" fill="#231F20" d="M584.247,46.861c0,5.108,3.175,8.541,8.32,8.541s8.663-3.305,8.663-8.541
		V29.165c0-4.979-3.175-8.583-8.663-8.583c-5.531,0-8.32,3.948-8.32,9.185V46.861z M590.854,29.294c0-1.805,0.941-2.448,1.842-2.448
		c0.856,0,1.628,0.601,1.628,2.405V46.69c0,1.803-0.729,2.361-1.585,2.361c-0.899,0-1.885-0.514-1.885-2.319V29.294z"/>
	<path clip-path="url(#SVGID_14_)" fill="#231F20" d="M607.461,24.185c1.546-1.976,4.553-3.22,7.128-3.22
		c2.359,0,4.757,0.815,6.511,2.533c1.798,1.804,2.912,4.551,2.912,6.949c0,7.457-5.78,13.328-12.127,17.999v0.128h12.256v6.308
		h-20.028v-6.179c5.152-2.656,12.494-12.599,12.494-18.598c0-1.586-0.731-3.172-2.619-3.172c-2.318,0-2.963,2.272-2.963,6.729
		h-5.797C605.228,27.277,605.786,26.332,607.461,24.185"/>
	<path clip-path="url(#SVGID_14_)" fill="#231F20" d="M627.15,46.861c0,5.108,3.176,8.541,8.32,8.541
		c5.146,0,8.663-3.305,8.663-8.541V29.165c0-4.979-3.176-8.583-8.663-8.583c-5.531,0-8.32,3.948-8.32,9.185V46.861z M633.758,29.294
		c0-1.805,0.941-2.448,1.841-2.448c0.857,0,1.627,0.601,1.627,2.405V46.69c0,1.803-0.728,2.361-1.584,2.361
		c-0.899,0-1.884-0.514-1.884-2.319V29.294z"/>
</g>
<rect x="647.941" y="34.675" fill="#231F20" width="11.282" height="5.969"/>
<g>
	<defs>
		<rect id="SVGID_15_" y="12.535" width="800" height="67.054"/>
	</defs>
	<clipPath id="SVGID_16_">
		<use xlink:href="#SVGID_15_"  overflow="visible"/>
	</clipPath>
	<path clip-path="url(#SVGID_16_)" fill="#231F20" d="M669.48,27.329c0-1.803,0.862-2.276,1.853-2.276
		c0.946,0,1.85,0.473,1.85,2.276v4.55c0,1.802-0.903,2.274-1.85,2.274c-0.99,0-1.853-0.472-1.853-2.274V27.329z M671.333,55.309
		c4.383,0,9.402-1.715,9.402-9.479c0-5.713-2.103-8.245-5.02-9.445v-0.129c2.23-0.9,4.205-3.69,4.205-6.867
		c0-3.391-1.374-8.804-8.588-8.804s-8.587,5.414-8.587,8.804c0,3.177,2.018,5.967,4.205,6.867v0.129
		c-2.917,1.201-5.02,3.732-5.02,9.445C661.932,53.766,666.951,55.309,671.333,55.309 M669.311,41.707
		c0-2.061,0.903-2.533,2.022-2.533c1.076,0,2.021,0.472,2.021,2.533v5.884c0,2.062-0.945,2.532-2.021,2.532
		c-1.119,0-2.022-0.47-2.022-2.532V41.707z"/>
</g>
<path fill="#231F20" d="M690.936,21.18l-8.582,22.138v4.542h9.611v7.022h6.606v-7.022h4.677v-5.441h-4.677V21.18H690.936z
	 M691.965,30.018v12.4h-4.892v-0.343L691.965,30.018z"/>
<g>
	<defs>
		<rect id="SVGID_17_" y="12.535" width="800" height="67.054"/>
	</defs>
	<clipPath id="SVGID_18_">
		<use xlink:href="#SVGID_17_"  overflow="visible"/>
	</clipPath>
	<path clip-path="url(#SVGID_18_)" fill="#231F20" d="M712.227,46.861c0,5.108,3.176,8.541,8.32,8.541
		c5.146,0,8.663-3.305,8.663-8.541V29.165c0-4.979-3.175-8.583-8.663-8.583c-5.531,0-8.32,3.948-8.32,9.185V46.861z M718.834,29.294
		c0-1.805,0.941-2.448,1.841-2.448c0.856,0,1.628,0.601,1.628,2.405V46.69c0,1.803-0.729,2.361-1.585,2.361
		c-0.899,0-1.884-0.514-1.884-2.319V29.294z"/>
	<path clip-path="url(#SVGID_18_)" fill="#231F20" d="M733.678,46.861c0,5.108,3.177,8.541,8.32,8.541
		c5.146,0,8.664-3.305,8.664-8.541V29.165c0-4.979-3.176-8.583-8.664-8.583c-5.531,0-8.32,3.948-8.32,9.185V46.861z M740.285,29.294
		c0-1.805,0.941-2.448,1.842-2.448c0.856,0,1.628,0.601,1.628,2.405V46.69c0,1.803-0.728,2.361-1.586,2.361
		c-0.897,0-1.884-0.514-1.884-2.319V29.294z"/>
	<path clip-path="url(#SVGID_18_)" fill="#231F20" d="M761.565,46.861c0,5.108,3.174,8.541,8.319,8.541s8.664-3.305,8.664-8.541
		V29.165c0-4.979-3.176-8.583-8.664-8.583c-5.53,0-8.319,3.948-8.319,9.185V46.861z M768.172,29.294
		c0-1.805,0.941-2.448,1.842-2.448c0.856,0,1.627,0.601,1.627,2.405V46.69c0,1.803-0.727,2.361-1.583,2.361
		c-0.899,0-1.886-0.514-1.886-2.319V29.294z"/>
	<path clip-path="url(#SVGID_18_)" fill="#231F20" d="M783.017,46.861c0,5.108,3.176,8.541,8.319,8.541
		c5.146,0,8.664-3.305,8.664-8.541V29.165c0-4.979-3.174-8.583-8.664-8.583c-5.53,0-8.319,3.948-8.319,9.185V46.861z
		 M789.623,29.294c0-1.805,0.941-2.448,1.842-2.448c0.856,0,1.628,0.601,1.628,2.405V46.69c0,1.803-0.728,2.361-1.585,2.361
		c-0.898,0-1.885-0.514-1.885-2.319V29.294z"/>
</g>
</svg>
